<?xml version="1.0" encoding="UTF-8" standalone="no"?>
<svg
   viewBox="0 0 793.7007874015749 1122.5196850393702"
   width="793.7007874015749"
   height="1122.5196850393702"
   version="1.1"
   id="svg18"
   sodipodi:docname="C64U_UsaerPort_Label.svg"
   inkscape:version="1.4 (86a8ad7, 2024-10-11)"
   xmlns:inkscape="http://www.inkscape.org/namespaces/inkscape"
   xmlns:sodipodi="http://sodipodi.sourceforge.net/DTD/sodipodi-0.dtd"
   xmlns="http://www.w3.org/2000/svg"
   xmlns:svg="http://www.w3.org/2000/svg">
  <sodipodi:namedview
     id="namedview18"
     pagecolor="#ffffff"
     bordercolor="#666666"
     borderopacity="1.0"
     inkscape:showpageshadow="2"
     inkscape:pageopacity="0.0"
     inkscape:pagecheckerboard="0"
     inkscape:deskcolor="#d1d1d1"
     inkscape:zoom="3.061451"
     inkscape:cx="410.42629"
     inkscape:cy="292.18171"
     inkscape:window-width="2560"
     inkscape:window-height="1411"
     inkscape:window-x="-9"
     inkscape:window-y="-9"
     inkscape:window-maximized="1"
     inkscape:current-layer="g18"
     showguides="true" />
  <desc
     id="desc1">outline.dxf - scale = 1.000000, origin = (0.000000, 0.000000), method = file</desc>
  <defs
     id="defs4">
    <marker
       id="DistanceX"
       orient="auto"
       refX="0.0"
       refY="0.0"
       style="overflow:visible">
      <path
         d="M 3,-3 L -3,3 M 0,-5 L  0,5"
         style="stroke:#000000; stroke-width:0.5"
         id="path1" />
    </marker>
    <pattern
       id="Hatch"
       patternUnits="userSpaceOnUse"
       width="8"
       height="8"
       x="0"
       y="0">
      <path
         d="M8 4 l-4,4"
         stroke="#000000"
         stroke-width="0.25"
         linecap="square"
         id="path2" />
      <path
         d="M6 2 l-4,4"
         stroke="#000000"
         stroke-width="0.25"
         linecap="square"
         id="path3" />
      <path
         d="M4 0 l-4,4"
         stroke="#000000"
         stroke-width="0.25"
         linecap="square"
         id="path4" />
    </pattern>
    <symbol
       id="*Model_Space" />
    <symbol
       id="*Paper_Space" />
    <symbol
       id="*Paper_Space0" />
  </defs>
  <g
     inkscape:groupmode="layer"
     inkscape:label="0"
     id="g4" />
  <g
     inkscape:groupmode="layer"
     inkscape:label="Visible"
     id="g18">
    <g
       id="g33">
      <g
         id="g27">
        <path
           style="fill:none;stroke:#000000;stroke-width:0.1;stroke-dasharray:none"
           d="m 250.22924,261.66568 c -6e-5,2.08744 1.69209,3.77959 3.77926,3.77976 l 153.07093,-1e-5 c 2.08752,-1.7e-4 3.77967,-1.69232 3.77976,-3.77976 v -34.01588 c -8e-5,-2.08718 -1.69224,-3.77934 -3.77976,-3.77927 H 254.0085 c -2.08717,-7e-5 -3.77933,1.69209 -3.77927,3.77927 z"
           id="path5"
           sodipodi:nodetypes="ccccccccc" />
        <path
           style="fill:none;stroke:#000000;stroke-width:0.1;stroke-dasharray:none"
           d="m 209.97729,334.61061 h 275.905 l 2.2e-4,-118.29911 c 2.1e-4,-5.21853 -4.23017,-9.44891 -9.44842,-9.4489 H 219.42616 c -5.21857,-10e-6 -9.44895,4.23037 -9.44891,9.44891 z"
           id="path17"
           sodipodi:nodetypes="ccccccc" />
      </g>
      <g
         id="g32">
        <g
           id="g30">
          <g
             id="g13037"
             transform="matrix(3.7795276,0,0,3.7795276,-245.6579,-62.163076)">
            <polygon
               transform="matrix(0.26458333,0,0,0.26458333,50.60586,-18.461077)"
               points="434.238,408.062 434.238,411.131 319.269,411.131 319.269,408.062 "
               id="polygon7"
               style="fill:#e2001a;fill-rule:evenodd" />
            <polygon
               transform="matrix(0.26458333,0,0,0.26458333,50.60586,-18.461077)"
               points="434.238,414.2 434.238,417.269 319.269,417.269 319.269,414.2 "
               id="polygon9"
               style="fill:#e95e38;fill-rule:evenodd" />
            <polygon
               transform="matrix(0.26458333,0,0,0.26458333,50.60586,-18.461077)"
               points="434.238,420.337 434.238,423.406 319.269,423.406 319.269,420.337 "
               id="polygon11"
               style="fill:#ffcc00;fill-rule:evenodd" />
            <polygon
               transform="matrix(0.26458333,0,0,0.26458333,50.60586,-18.461077)"
               points="434.238,426.475 434.238,429.544 319.269,429.544 319.269,426.475 "
               id="polygon13"
               style="fill:#57ab27;fill-rule:evenodd" />
            <polygon
               transform="matrix(0.26458333,0,0,0.26458333,50.60586,-18.461077)"
               points="434.238,432.613 434.238,435.682 319.269,435.682 319.269,432.613 "
               id="polygon15"
               style="fill:#009ee0;fill-rule:evenodd" />
          </g>
          <g
             id="g9431"
             transform="matrix(3.7795276,0,0,3.7795276,165.1467,229.16092)">
            <path
               id="path13020"
               d="m 23.267662,16.247495 h -1.759744 v 1.443302 h 3.163094 z"
               style="fill:#ff0000;stroke-width:0.264583"
               inkscape:connector-curvature="0" />
            <path
               id="path13018"
               d="m 24.670747,14.508125 h -3.163093 v 1.443037 h 1.7399 z"
               style="fill:#000080;stroke-width:0.264583"
               inkscape:connector-curvature="0" />
            <path
               id="path12994"
               d="m 21.408964,14.40917 v -1.858168 c -0.375444,-0.09895 -0.632883,-0.138642 -1.008063,-0.138642 -1.957387,0 -3.677179,1.64121 -3.677179,3.677179 0,2.095765 1.739371,3.6576 3.696759,3.6576 0.355864,0 0.553508,-0.03969 0.988483,-0.15875 v -1.897592 c -0.43524,0.217223 -0.652198,0.27649 -1.008063,0.27649 -1.087437,0 -1.918229,-0.909108 -1.918229,-1.917435 0,-1.047486 0.810684,-1.937544 1.898121,-1.937544 0.375973,0 0.69215,0.09922 1.028171,0.296862 z"
               style="fill:#000080;stroke-width:0.264583"
               inkscape:connector-curvature="0" />
          </g>
          <g
             id="g29">
            <path
               id="path17-7"
               style="fill:#000080;stroke-width:0.999999"
               d="m 402.12516,294.85979 v -1.57601 c 0,-0.557 -0.18406,-0.90901 -0.55098,-1.05801 -0.3651,-0.14698 -1.16001,-0.22299 -2.38099,-0.22299 h -1.586 c -1.22302,0 -2.02299,0.069 -2.40201,0.20901 -0.38101,0.13701 -0.56999,0.495 -0.56999,1.071 v 1.576 c 0,0.597 0.18898,0.969 0.56999,1.116 0.37902,0.14801 1.18001,0.22401 2.40201,0.22401 h 1.586 c 1.248,0 2.049,-0.075 2.402,-0.22401 0.35188,-0.146 0.52997,-0.518 0.52997,-1.115 z m 26.27603,-2.946 v -7.171 l -7.12301,7.171 z m 11.71998,4.791 h -3.5 v 4.048 h -8.221 v -4.048 h -14.85698 l 0.0412,-5.892 11.76397,-11.696 h 11.27301 v 12.797 h 3.49999 z m -29.77501,-1.51702 c 0,3.88901 -3.41798,5.83301 -10.25798,5.83301 h -3.49999 c -3.85402,0 -6.52502,-0.66601 -8.018,-1.99301 -1.49401,-1.33 -2.23801,-3.632 -2.23801,-6.90599 v -4.404 c 0,-3.254 0.744,-5.54501 2.23801,-6.87501 1.492,-1.33 4.16398,-1.994 8.018,-1.994 h 3.49999 c 3.17602,0 5.564,0.42601 7.16398,1.28001 1.60203,0.854 2.40201,2.103 2.40201,3.74999 v 1.57801 h -8.22301 v -0.56501 c 0,-0.516 -0.14816,-0.854 -0.44696,-1.013 -0.29897,-0.15798 -0.89602,-0.23898 -1.79101,-0.23898 h -1.955 c -1.11103,0 -1.824,0.09 -2.13502,0.26899 -0.31294,0.17802 -0.469,0.604 -0.469,1.279 v 3.034 c 1.19301,-0.654 2.67202,-0.98 4.438,-0.98 h 2.889 c 2.904,0 5.02699,0.491 6.37099,1.472 1.342,0.982 2.014,2.496 2.014,4.539 z"
               inkscape:connector-curvature="0" />
            <g
               id="g28">
              <path
                 d="m 488.80089,252.91119 v 8.87402 c 0.0289,3.1218 0.0289,3.1218 0.0578,3.75773 0.14453,2.83274 0.46249,4.01787 1.41637,5.00066 1.44528,1.532 3.75773,1.93668 11.12866,1.93668 4.48037,0 6.41704,-0.11562 8.15138,-0.46249 2.19682,-0.46249 3.67101,-1.99449 3.98897,-4.19131 0.17343,-1.35857 0.20234,-1.67653 0.28906,-6.04127 v -8.87402 h -5.86784 v 8.87402 c 0,0.40468 -0.0289,1.32965 -0.0578,1.99448 -0.0867,1.82106 -0.23125,2.34136 -0.69374,2.83275 -0.63592,0.69374 -1.84995,0.86717 -5.89674,0.86717 -5.00067,0 -6.12799,-0.31796 -6.44595,-1.84996 -0.14453,-0.78045 -0.14453,-0.80935 -0.20234,-3.84444 v -8.87402 z"
                 id="text19"
                 style="font-weight:bold;font-size:28.9056px;line-height:1;font-family:'Microgramma D Extended';-inkscape-font-specification:'Microgramma D Extended Bold';font-variant-ligatures:none;text-align:center;letter-spacing:0px;word-spacing:0px;text-anchor:middle;fill:#000080"
                 transform="scale(0.90605119,1.1036904)"
                 aria-label="U" />
              <path
                 d="m 490.94887,252.91119 v 8.87402 c 0.0289,3.1218 0.0289,3.1218 0.0578,3.75773 0.14453,2.83274 0.46249,4.01787 1.41637,5.00066 1.44528,1.532 3.75773,1.93668 11.12866,1.93668 4.48037,0 6.41704,-0.11562 8.15138,-0.46249 2.19682,-0.46249 3.67101,-1.99449 3.98897,-4.19131 0.17343,-1.35857 0.20234,-1.67653 0.28906,-6.04127 v -8.87402 h -5.86784 v 8.87402 c 0,0.40468 -0.0289,1.32965 -0.0578,1.99448 -0.0867,1.82106 -0.23125,2.34136 -0.69374,2.83275 -0.63592,0.69374 -1.84995,0.86717 -5.89674,0.86717 -5.00067,0 -6.12799,-0.31796 -6.44595,-1.84996 -0.14453,-0.78045 -0.14453,-0.80935 -0.20234,-3.84444 v -8.87402 z"
                 id="text19-4"
                 style="font-weight:bold;font-size:28.9056px;line-height:1;font-family:'Microgramma D Extended';-inkscape-font-specification:'Microgramma D Extended Bold';font-variant-ligatures:none;text-align:center;letter-spacing:0px;word-spacing:0px;text-anchor:middle;fill:#000080"
                 transform="scale(0.90605119,1.1036904)"
                 aria-label="U" />
            </g>
          </g>
        </g>
        <g
           id="g31">
          <path
             d="m 311.53664,313.50281 v 4.37332 c 0.0133,1.90666 0.0267,2.06666 0.0933,2.61333 0.10667,0.90666 0.68,1.57333 1.50666,1.74666 0.61334,0.12 1.81333,0.18666 3.65333,0.18666 1.45333,0 2.95999,-0.08 3.55999,-0.18666 0.97333,-0.18667 1.52,-0.82667 1.61333,-1.90666 0.0533,-0.54667 0.0533,-0.61334 0.0667,-2.45333 v -4.37332 h -1.18667 v 4.37332 c -0.0133,2.55999 -0.0267,2.70666 -0.28,2.99999 -0.32,0.37333 -1.18666,0.48 -4.03999,0.48 -1.50666,0 -2.49332,-0.0533 -2.94666,-0.16 -0.74666,-0.18666 -0.85333,-0.45333 -0.85333,-2.14666 v -1.17333 -4.37332 z m 11.43998,6.74665 v 0.32 c 0,0.75999 0.14666,1.14666 0.57333,1.45333 0.46666,0.34666 1.30666,0.45333 3.41332,0.45333 1.76,0 2.65333,-0.0933 3.09333,-0.33333 0.50666,-0.28 0.73333,-0.73334 0.73333,-1.49333 0,-1.21333 -0.57333,-1.74667 -1.98666,-1.8 -0.64,-0.0267 -2.42666,-0.0667 -2.83999,-0.0533 -1.48,0.0267 -1.84,-0.13334 -1.84,-0.81333 0,-0.32 0.0933,-0.54667 0.28,-0.68 0.28,-0.21334 1.09333,-0.30667 2.46666,-0.30667 1.46666,0 2.19999,0.10667 2.46666,0.38667 0.14667,0.13333 0.18667,0.29333 0.18667,0.74666 h 1.03999 c 0,-0.73333 -0.0533,-0.93333 -0.28,-1.21333 -0.45333,-0.58666 -1.29333,-0.77333 -3.37332,-0.77333 -1.81333,0 -2.73333,0.12 -3.17333,0.4 -0.43999,0.29333 -0.65333,0.76 -0.65333,1.42666 0,1.24 0.57333,1.68 2.2,1.70667 2.35999,0.0267 2.55999,0.0267 2.82666,0.0267 1.23999,-0.0133 1.63999,0.22667 1.63999,0.96 0,0.30667 -0.08,0.52 -0.26666,0.66666 -0.29334,0.24 -0.77333,0.29334 -2.48,0.29334 -2.77332,0 -2.98666,-0.08 -2.97332,-1.2 l -0.0133,-0.17333 z m 15.45329,0.24 c -0.04,0.4 -0.0667,0.50666 -0.22667,0.66666 -0.32,0.36 -0.86666,0.46667 -2.26666,0.46667 -1.85333,0 -2.51999,-0.12 -2.89332,-0.50667 -0.29334,-0.30666 -0.42667,-0.78666 -0.45334,-1.58666 h 6.87999 c -0.0267,-1.46666 -0.16,-2.02666 -0.62667,-2.57333 -0.57333,-0.64 -1.30666,-0.81333 -3.43999,-0.81333 -1.49333,0 -2.19999,0.0933 -2.70666,0.37333 -0.8,0.44 -1.16,1.30667 -1.16,2.81333 0,1.26666 0.29334,2.11999 0.88,2.57333 0.54667,0.42666 1.49333,0.57333 3.62666,0.57333 2.50666,0 3.37332,-0.50667 3.41332,-1.98666 z m -5.81332,-1.8 c 0.10667,-1.37333 0.62667,-1.69333 2.75999,-1.69333 2.4,0 3,0.33333 3.01333,1.69333 z m 7.73333,-2.46666 v 6.17332 h 0.97333 v -2.85333 c 0,-2.17333 0.41333,-2.54666 2.75999,-2.54666 1.52,0 1.85333,0.28 1.85333,1.56 v 0.44 h 1 v -0.64 c 0,-0.8 -0.21334,-1.38666 -0.62667,-1.74666 -0.41333,-0.36 -0.90666,-0.46667 -2.11999,-0.46667 -1.17333,0 -1.69333,0.0533 -2.06666,0.24 -0.33334,0.16 -0.57334,0.37333 -0.73334,0.66667 h -0.0667 v -0.82667 z m 10.63997,6.17332 h 1.18667 v -3.34666 h 4.43998 c 0.88,0 1.4,0 1.56,-0.0133 1.17333,-0.0267 1.56,-0.13334 2.04,-0.54667 0.47999,-0.4 0.66666,-1.04 0.66666,-2.23999 0,-1.21333 -0.21333,-1.88 -0.72,-2.26666 -0.54666,-0.41334 -0.54666,-0.41334 -3.54666,-0.48 h -5.62665 z m 1.18667,-4.38666 v -3.46666 h 4.43998 c 2.22667,0.04 2.36,0.0667 2.72,0.33334 0.26666,0.2 0.33333,0.49333 0.33333,1.41333 0,0.83999 -0.0933,1.17333 -0.36,1.39999 -0.36,0.29334 -0.53333,0.32 -2.69333,0.32 z m 13.06663,-1.86666 c -1.39999,0 -2.09332,0.0933 -2.59999,0.36 -0.81333,0.42667 -1.18666,1.30666 -1.18666,2.77333 0,1.51999 0.30666,2.30666 1.09333,2.75999 0.56,0.33333 1.31999,0.44 3.13332,0.44 1.57333,0 2.26666,-0.0933 2.8,-0.4 0.77333,-0.44 1.10666,-1.28 1.10666,-2.77333 0,-1.43999 -0.30667,-2.23999 -1.05333,-2.71999 -0.53333,-0.33333 -1.29333,-0.44 -3.29333,-0.44 z m 0.16,0.85333 c 1.25333,0 1.92,0.0667 2.29333,0.24 0.62667,0.28 0.85333,0.82667 0.85333,2.04 0,1.07999 -0.16,1.62666 -0.56,1.94666 -0.4,0.30666 -0.94666,0.4 -2.38666,0.4 -1.14666,0 -1.73333,-0.0533 -2.13333,-0.2 -0.71999,-0.25334 -0.97333,-0.8 -0.97333,-2.08 0,-1.98666 0.44,-2.34666 2.90666,-2.34666 z m 5.11999,-0.77333 v 6.17332 h 0.97333 v -2.85333 c 0,-2.17333 0.41333,-2.54666 2.76,-2.54666 1.51999,0 1.85332,0.28 1.85332,1.56 v 0.44 h 1 v -0.64 c 0,-0.8 -0.21333,-1.38666 -0.62666,-1.74666 -0.41334,-0.36 -0.90667,-0.46667 -2.12,-0.46667 -1.17333,0 -1.69333,0.0533 -2.06666,0.24 -0.33333,0.16 -0.57333,0.37333 -0.73333,0.66667 h -0.0667 v -0.82667 z m 8.39998,-1.53333 v 1.53333 h -1.51999 v 0.84 h 1.51999 v 2.98666 c 0,0.97333 0.08,1.35999 0.34667,1.73333 0.36,0.49333 1.06666,0.69333 2.38666,0.69333 1.30666,0 1.97333,-0.21333 2.33333,-0.76 0.25333,-0.37333 0.33333,-0.77333 0.33333,-1.73333 v -0.38666 h -0.97333 v 0.38666 c 0,0.76 -0.04,0.98667 -0.18667,1.21333 -0.21333,0.33333 -0.54666,0.42667 -1.41333,0.42667 -0.93333,0 -1.37333,-0.12 -1.62666,-0.42667 -0.2,-0.25333 -0.2,-0.29333 -0.22667,-1.46666 v -2.66666 h 4.31999 v -0.84 h -4.31999 v -1.53333 z"
             id="text21"
             style="font-weight:500;font-size:13.3333px;line-height:1;font-family:'Microgramma D Extended';-inkscape-font-specification:'Microgramma D Extended, Medium';font-variant-ligatures:none;text-align:center;letter-spacing:0px;word-spacing:0px;text-anchor:middle"
             aria-label="User Port" />
        </g>
      </g>
    </g>
  </g>
</svg>
